<mxfile host="app.diagrams.net" modified="2020-12-02T12:02:42.003Z" agent="5.0 (Macintosh; Intel Mac OS X 10_15_7) AppleWebKit/605.1.15 (KHTML, like Gecko) Version/14.0 Safari/605.1.15" etag="zLNvvfSOMUDj87Vdg4qU" version="13.10.5" type="github" pages="4">
  <diagram id="cAAJZSxlYXHKFz8Sik9u" name="Task-1">
    <mxGraphModel dx="779" dy="614" grid="1" gridSize="10" guides="1" tooltips="1" connect="1" arrows="1" fold="1" page="1" pageScale="1" pageWidth="827" pageHeight="1169" math="0" shadow="0">
      <root>
        <mxCell id="0" />
        <mxCell id="1" parent="0" />
        <mxCell id="u3W5GA8NcHfqfD5vYZH1-1" style="edgeStyle=orthogonalEdgeStyle;rounded=0;orthogonalLoop=1;jettySize=auto;html=1;exitX=0.5;exitY=1;exitDx=0;exitDy=0;entryX=0.5;entryY=0;entryDx=0;entryDy=0;" edge="1" parent="1" source="GYxc8_zidlTMcgcLCnEi-1" target="GYxc8_zidlTMcgcLCnEi-4">
          <mxGeometry relative="1" as="geometry" />
        </mxCell>
        <mxCell id="GYxc8_zidlTMcgcLCnEi-1" value="Начало" style="ellipse;whiteSpace=wrap;html=1;" vertex="1" parent="1">
          <mxGeometry x="140" y="40" width="120" height="30" as="geometry" />
        </mxCell>
        <mxCell id="GYxc8_zidlTMcgcLCnEi-2" style="edgeStyle=orthogonalEdgeStyle;rounded=0;orthogonalLoop=1;jettySize=auto;html=1;exitX=0.5;exitY=1;exitDx=0;exitDy=0;" edge="1" parent="1" source="GYxc8_zidlTMcgcLCnEi-1" target="GYxc8_zidlTMcgcLCnEi-1">
          <mxGeometry relative="1" as="geometry" />
        </mxCell>
        <mxCell id="u3W5GA8NcHfqfD5vYZH1-13" style="edgeStyle=orthogonalEdgeStyle;rounded=0;orthogonalLoop=1;jettySize=auto;html=1;exitX=0.5;exitY=1;exitDx=0;exitDy=0;entryX=0.5;entryY=0;entryDx=0;entryDy=0;" edge="1" parent="1" source="GYxc8_zidlTMcgcLCnEi-3" target="u3W5GA8NcHfqfD5vYZH1-12">
          <mxGeometry relative="1" as="geometry" />
        </mxCell>
        <mxCell id="GYxc8_zidlTMcgcLCnEi-3" value="Побитовый сдвиг влево на 2 знака" style="rounded=0;whiteSpace=wrap;html=1;" vertex="1" parent="1">
          <mxGeometry x="140" y="150" width="120" height="60" as="geometry" />
        </mxCell>
        <mxCell id="u3W5GA8NcHfqfD5vYZH1-11" style="edgeStyle=orthogonalEdgeStyle;rounded=0;orthogonalLoop=1;jettySize=auto;html=1;exitX=0.5;exitY=1;exitDx=0;exitDy=0;entryX=0.5;entryY=0;entryDx=0;entryDy=0;" edge="1" parent="1" source="GYxc8_zidlTMcgcLCnEi-4" target="GYxc8_zidlTMcgcLCnEi-3">
          <mxGeometry relative="1" as="geometry" />
        </mxCell>
        <mxCell id="GYxc8_zidlTMcgcLCnEi-4" value="a = 5" style="rounded=0;whiteSpace=wrap;html=1;" vertex="1" parent="1">
          <mxGeometry x="140" y="90" width="120" height="30" as="geometry" />
        </mxCell>
        <mxCell id="GYxc8_zidlTMcgcLCnEi-20" style="edgeStyle=orthogonalEdgeStyle;rounded=0;orthogonalLoop=1;jettySize=auto;html=1;exitX=0.5;exitY=1;exitDx=0;exitDy=0;entryX=0.5;entryY=0;entryDx=0;entryDy=0;" edge="1" parent="1" source="GYxc8_zidlTMcgcLCnEi-5" target="GYxc8_zidlTMcgcLCnEi-18">
          <mxGeometry relative="1" as="geometry">
            <mxPoint x="200" y="280" as="targetPoint" />
          </mxGeometry>
        </mxCell>
        <mxCell id="GYxc8_zidlTMcgcLCnEi-5" value="Побитовый сдвиг вправо&amp;nbsp;на 2 знака" style="rounded=0;whiteSpace=wrap;html=1;" vertex="1" parent="1">
          <mxGeometry x="140" y="330" width="120" height="60" as="geometry" />
        </mxCell>
        <mxCell id="u3W5GA8NcHfqfD5vYZH1-10" style="edgeStyle=orthogonalEdgeStyle;rounded=0;orthogonalLoop=1;jettySize=auto;html=1;exitX=0.5;exitY=1;exitDx=0;exitDy=0;entryX=0.5;entryY=0;entryDx=0;entryDy=0;" edge="1" parent="1" source="GYxc8_zidlTMcgcLCnEi-11" target="u3W5GA8NcHfqfD5vYZH1-4">
          <mxGeometry relative="1" as="geometry" />
        </mxCell>
        <mxCell id="GYxc8_zidlTMcgcLCnEi-11" value="a and b" style="rounded=0;whiteSpace=wrap;html=1;" vertex="1" parent="1">
          <mxGeometry x="140" y="560" width="120" height="30" as="geometry" />
        </mxCell>
        <mxCell id="u3W5GA8NcHfqfD5vYZH1-3" style="edgeStyle=orthogonalEdgeStyle;rounded=0;orthogonalLoop=1;jettySize=auto;html=1;exitX=0.5;exitY=1;exitDx=0;exitDy=0;entryX=0.5;entryY=0;entryDx=0;entryDy=0;" edge="1" parent="1" source="GYxc8_zidlTMcgcLCnEi-14" target="GYxc8_zidlTMcgcLCnEi-11">
          <mxGeometry relative="1" as="geometry" />
        </mxCell>
        <mxCell id="GYxc8_zidlTMcgcLCnEi-14" value="b&amp;nbsp;= 6" style="rounded=0;whiteSpace=wrap;html=1;" vertex="1" parent="1">
          <mxGeometry x="140" y="510" width="120" height="20" as="geometry" />
        </mxCell>
        <mxCell id="u3W5GA8NcHfqfD5vYZH1-8" style="edgeStyle=orthogonalEdgeStyle;rounded=0;orthogonalLoop=1;jettySize=auto;html=1;exitX=0.5;exitY=1;exitDx=0;exitDy=0;entryX=0.5;entryY=0;entryDx=0;entryDy=0;" edge="1" parent="1" source="GYxc8_zidlTMcgcLCnEi-15" target="u3W5GA8NcHfqfD5vYZH1-7">
          <mxGeometry relative="1" as="geometry" />
        </mxCell>
        <mxCell id="GYxc8_zidlTMcgcLCnEi-15" value="a or b" style="rounded=0;whiteSpace=wrap;html=1;" vertex="1" parent="1">
          <mxGeometry x="140" y="710" width="120" height="30" as="geometry" />
        </mxCell>
        <mxCell id="u3W5GA8NcHfqfD5vYZH1-2" style="edgeStyle=orthogonalEdgeStyle;rounded=0;orthogonalLoop=1;jettySize=auto;html=1;exitX=0.5;exitY=1;exitDx=0;exitDy=0;entryX=0.5;entryY=0;entryDx=0;entryDy=0;" edge="1" parent="1" source="GYxc8_zidlTMcgcLCnEi-18" target="GYxc8_zidlTMcgcLCnEi-14">
          <mxGeometry relative="1" as="geometry" />
        </mxCell>
        <mxCell id="GYxc8_zidlTMcgcLCnEi-18" value="Вывод &lt;br&gt;результата" style="shape=parallelogram;perimeter=parallelogramPerimeter;whiteSpace=wrap;html=1;fixedSize=1;" vertex="1" parent="1">
          <mxGeometry x="140" y="420" width="120" height="60" as="geometry" />
        </mxCell>
        <mxCell id="GYxc8_zidlTMcgcLCnEi-23" value="Конец" style="ellipse;whiteSpace=wrap;html=1;" vertex="1" parent="1">
          <mxGeometry x="140" y="860" width="120" height="30" as="geometry" />
        </mxCell>
        <mxCell id="u3W5GA8NcHfqfD5vYZH1-6" style="edgeStyle=orthogonalEdgeStyle;rounded=0;orthogonalLoop=1;jettySize=auto;html=1;exitX=0.5;exitY=1;exitDx=0;exitDy=0;entryX=0.5;entryY=0;entryDx=0;entryDy=0;" edge="1" parent="1" source="u3W5GA8NcHfqfD5vYZH1-4" target="GYxc8_zidlTMcgcLCnEi-15">
          <mxGeometry relative="1" as="geometry" />
        </mxCell>
        <mxCell id="u3W5GA8NcHfqfD5vYZH1-4" value="Вывод &lt;br&gt;результата" style="shape=parallelogram;perimeter=parallelogramPerimeter;whiteSpace=wrap;html=1;fixedSize=1;" vertex="1" parent="1">
          <mxGeometry x="140" y="620" width="120" height="60" as="geometry" />
        </mxCell>
        <mxCell id="u3W5GA8NcHfqfD5vYZH1-9" style="edgeStyle=orthogonalEdgeStyle;rounded=0;orthogonalLoop=1;jettySize=auto;html=1;exitX=0.5;exitY=1;exitDx=0;exitDy=0;entryX=0.5;entryY=0;entryDx=0;entryDy=0;" edge="1" parent="1" source="u3W5GA8NcHfqfD5vYZH1-7" target="GYxc8_zidlTMcgcLCnEi-23">
          <mxGeometry relative="1" as="geometry" />
        </mxCell>
        <mxCell id="u3W5GA8NcHfqfD5vYZH1-7" value="Вывод &lt;br&gt;результата" style="shape=parallelogram;perimeter=parallelogramPerimeter;whiteSpace=wrap;html=1;fixedSize=1;" vertex="1" parent="1">
          <mxGeometry x="140" y="770" width="120" height="60" as="geometry" />
        </mxCell>
        <mxCell id="u3W5GA8NcHfqfD5vYZH1-14" style="edgeStyle=orthogonalEdgeStyle;rounded=0;orthogonalLoop=1;jettySize=auto;html=1;exitX=0.5;exitY=1;exitDx=0;exitDy=0;entryX=0.5;entryY=0;entryDx=0;entryDy=0;" edge="1" parent="1" source="u3W5GA8NcHfqfD5vYZH1-12" target="GYxc8_zidlTMcgcLCnEi-5">
          <mxGeometry relative="1" as="geometry" />
        </mxCell>
        <mxCell id="u3W5GA8NcHfqfD5vYZH1-12" value="Вывод &lt;br&gt;результата" style="shape=parallelogram;perimeter=parallelogramPerimeter;whiteSpace=wrap;html=1;fixedSize=1;" vertex="1" parent="1">
          <mxGeometry x="140" y="240" width="120" height="60" as="geometry" />
        </mxCell>
      </root>
    </mxGraphModel>
  </diagram>
  <diagram id="qksW4t9MuVZukLXr-Wi6" name="Task-2">
    <mxGraphModel dx="779" dy="614" grid="1" gridSize="10" guides="1" tooltips="1" connect="1" arrows="1" fold="1" page="1" pageScale="1" pageWidth="827" pageHeight="1169" math="0" shadow="0">
      <root>
        <mxCell id="39DMz0P3uiPCtwHiy78Q-0" />
        <mxCell id="39DMz0P3uiPCtwHiy78Q-1" parent="39DMz0P3uiPCtwHiy78Q-0" />
        <mxCell id="cHhHhPkX77bo-oiByB_M-5" style="edgeStyle=orthogonalEdgeStyle;rounded=0;orthogonalLoop=1;jettySize=auto;html=1;exitX=0.5;exitY=1;exitDx=0;exitDy=0;entryX=0.5;entryY=0;entryDx=0;entryDy=0;" edge="1" parent="39DMz0P3uiPCtwHiy78Q-1" source="cHhHhPkX77bo-oiByB_M-0" target="cHhHhPkX77bo-oiByB_M-1">
          <mxGeometry relative="1" as="geometry" />
        </mxCell>
        <mxCell id="cHhHhPkX77bo-oiByB_M-0" value="Начало" style="ellipse;whiteSpace=wrap;html=1;" vertex="1" parent="39DMz0P3uiPCtwHiy78Q-1">
          <mxGeometry x="252" y="30" width="120" height="30" as="geometry" />
        </mxCell>
        <mxCell id="cHhHhPkX77bo-oiByB_M-11" style="edgeStyle=orthogonalEdgeStyle;rounded=0;orthogonalLoop=1;jettySize=auto;html=1;exitX=0.5;exitY=1;exitDx=0;exitDy=0;entryX=0.567;entryY=0.033;entryDx=0;entryDy=0;entryPerimeter=0;" edge="1" parent="39DMz0P3uiPCtwHiy78Q-1" source="cHhHhPkX77bo-oiByB_M-1" target="cHhHhPkX77bo-oiByB_M-10">
          <mxGeometry relative="1" as="geometry" />
        </mxCell>
        <mxCell id="cHhHhPkX77bo-oiByB_M-1" value="Введите&lt;br&gt;&amp;nbsp;координату Х &lt;br&gt;точки А" style="shape=parallelogram;perimeter=parallelogramPerimeter;whiteSpace=wrap;html=1;fixedSize=1;" vertex="1" parent="39DMz0P3uiPCtwHiy78Q-1">
          <mxGeometry x="252" y="80" width="120" height="60" as="geometry" />
        </mxCell>
        <mxCell id="cHhHhPkX77bo-oiByB_M-14" style="edgeStyle=orthogonalEdgeStyle;rounded=0;orthogonalLoop=1;jettySize=auto;html=1;exitX=0.5;exitY=1;exitDx=0;exitDy=0;entryX=0.5;entryY=0;entryDx=0;entryDy=0;" edge="1" parent="39DMz0P3uiPCtwHiy78Q-1" source="cHhHhPkX77bo-oiByB_M-2" target="cHhHhPkX77bo-oiByB_M-12">
          <mxGeometry relative="1" as="geometry" />
        </mxCell>
        <mxCell id="cHhHhPkX77bo-oiByB_M-2" value="Введите&lt;br&gt;&amp;nbsp;координату Y&amp;nbsp;&lt;br&gt;точки А" style="shape=parallelogram;perimeter=parallelogramPerimeter;whiteSpace=wrap;html=1;fixedSize=1;" vertex="1" parent="39DMz0P3uiPCtwHiy78Q-1">
          <mxGeometry x="252" y="240" width="120" height="60" as="geometry" />
        </mxCell>
        <mxCell id="cHhHhPkX77bo-oiByB_M-15" style="edgeStyle=orthogonalEdgeStyle;rounded=0;orthogonalLoop=1;jettySize=auto;html=1;exitX=0.5;exitY=1;exitDx=0;exitDy=0;entryX=0.5;entryY=0;entryDx=0;entryDy=0;" edge="1" parent="39DMz0P3uiPCtwHiy78Q-1" source="cHhHhPkX77bo-oiByB_M-10" target="cHhHhPkX77bo-oiByB_M-2">
          <mxGeometry relative="1" as="geometry" />
        </mxCell>
        <mxCell id="cHhHhPkX77bo-oiByB_M-10" value="Ввод&lt;br&gt;&amp;nbsp;координаты Х&amp;nbsp;&lt;br&gt;точки А" style="shape=parallelogram;perimeter=parallelogramPerimeter;whiteSpace=wrap;html=1;fixedSize=1;" vertex="1" parent="39DMz0P3uiPCtwHiy78Q-1">
          <mxGeometry x="252" y="160" width="120" height="60" as="geometry" />
        </mxCell>
        <mxCell id="cHhHhPkX77bo-oiByB_M-20" style="edgeStyle=orthogonalEdgeStyle;rounded=0;orthogonalLoop=1;jettySize=auto;html=1;exitX=0.5;exitY=1;exitDx=0;exitDy=0;entryX=0.5;entryY=0;entryDx=0;entryDy=0;" edge="1" parent="39DMz0P3uiPCtwHiy78Q-1" source="cHhHhPkX77bo-oiByB_M-12" target="cHhHhPkX77bo-oiByB_M-16">
          <mxGeometry relative="1" as="geometry" />
        </mxCell>
        <mxCell id="cHhHhPkX77bo-oiByB_M-12" value="Ввод&lt;br&gt;&amp;nbsp;координаты Y&amp;nbsp;&lt;br&gt;точки А" style="shape=parallelogram;perimeter=parallelogramPerimeter;whiteSpace=wrap;html=1;fixedSize=1;" vertex="1" parent="39DMz0P3uiPCtwHiy78Q-1">
          <mxGeometry x="252" y="320" width="120" height="60" as="geometry" />
        </mxCell>
        <mxCell id="cHhHhPkX77bo-oiByB_M-21" style="edgeStyle=orthogonalEdgeStyle;rounded=0;orthogonalLoop=1;jettySize=auto;html=1;exitX=0.5;exitY=1;exitDx=0;exitDy=0;entryX=0.5;entryY=0;entryDx=0;entryDy=0;" edge="1" parent="39DMz0P3uiPCtwHiy78Q-1" source="cHhHhPkX77bo-oiByB_M-16" target="cHhHhPkX77bo-oiByB_M-18">
          <mxGeometry relative="1" as="geometry" />
        </mxCell>
        <mxCell id="cHhHhPkX77bo-oiByB_M-16" value="Введите&lt;br&gt;&amp;nbsp;координату Х &lt;br&gt;точки В" style="shape=parallelogram;perimeter=parallelogramPerimeter;whiteSpace=wrap;html=1;fixedSize=1;" vertex="1" parent="39DMz0P3uiPCtwHiy78Q-1">
          <mxGeometry x="252" y="400" width="120" height="60" as="geometry" />
        </mxCell>
        <mxCell id="cHhHhPkX77bo-oiByB_M-23" style="edgeStyle=orthogonalEdgeStyle;rounded=0;orthogonalLoop=1;jettySize=auto;html=1;exitX=0.5;exitY=1;exitDx=0;exitDy=0;entryX=0.5;entryY=0;entryDx=0;entryDy=0;" edge="1" parent="39DMz0P3uiPCtwHiy78Q-1" source="cHhHhPkX77bo-oiByB_M-17" target="cHhHhPkX77bo-oiByB_M-19">
          <mxGeometry relative="1" as="geometry" />
        </mxCell>
        <mxCell id="cHhHhPkX77bo-oiByB_M-17" value="Введите&lt;br&gt;&amp;nbsp;координату Y&amp;nbsp;&lt;br&gt;точки В" style="shape=parallelogram;perimeter=parallelogramPerimeter;whiteSpace=wrap;html=1;fixedSize=1;" vertex="1" parent="39DMz0P3uiPCtwHiy78Q-1">
          <mxGeometry x="252" y="560" width="120" height="60" as="geometry" />
        </mxCell>
        <mxCell id="cHhHhPkX77bo-oiByB_M-22" style="edgeStyle=orthogonalEdgeStyle;rounded=0;orthogonalLoop=1;jettySize=auto;html=1;exitX=0.5;exitY=1;exitDx=0;exitDy=0;entryX=0.5;entryY=0;entryDx=0;entryDy=0;" edge="1" parent="39DMz0P3uiPCtwHiy78Q-1" source="cHhHhPkX77bo-oiByB_M-18" target="cHhHhPkX77bo-oiByB_M-17">
          <mxGeometry relative="1" as="geometry" />
        </mxCell>
        <mxCell id="cHhHhPkX77bo-oiByB_M-18" value="Ввод&lt;br&gt;&amp;nbsp;координаты Х&amp;nbsp;&lt;br&gt;точки В" style="shape=parallelogram;perimeter=parallelogramPerimeter;whiteSpace=wrap;html=1;fixedSize=1;" vertex="1" parent="39DMz0P3uiPCtwHiy78Q-1">
          <mxGeometry x="252" y="480" width="120" height="60" as="geometry" />
        </mxCell>
        <mxCell id="cHhHhPkX77bo-oiByB_M-30" style="edgeStyle=orthogonalEdgeStyle;rounded=0;orthogonalLoop=1;jettySize=auto;html=1;exitX=0.5;exitY=1;exitDx=0;exitDy=0;entryX=0.5;entryY=0;entryDx=0;entryDy=0;" edge="1" parent="39DMz0P3uiPCtwHiy78Q-1" source="cHhHhPkX77bo-oiByB_M-19" target="cHhHhPkX77bo-oiByB_M-25">
          <mxGeometry relative="1" as="geometry" />
        </mxCell>
        <mxCell id="cHhHhPkX77bo-oiByB_M-19" value="Ввод&lt;br&gt;&amp;nbsp;координаты Y&amp;nbsp;&lt;br&gt;точки В" style="shape=parallelogram;perimeter=parallelogramPerimeter;whiteSpace=wrap;html=1;fixedSize=1;" vertex="1" parent="39DMz0P3uiPCtwHiy78Q-1">
          <mxGeometry x="252" y="640" width="120" height="60" as="geometry" />
        </mxCell>
        <mxCell id="cHhHhPkX77bo-oiByB_M-31" style="edgeStyle=orthogonalEdgeStyle;rounded=0;orthogonalLoop=1;jettySize=auto;html=1;exitX=0.5;exitY=1;exitDx=0;exitDy=0;entryX=0.5;entryY=0;entryDx=0;entryDy=0;" edge="1" parent="39DMz0P3uiPCtwHiy78Q-1" source="cHhHhPkX77bo-oiByB_M-25" target="cHhHhPkX77bo-oiByB_M-26">
          <mxGeometry relative="1" as="geometry" />
        </mxCell>
        <mxCell id="cHhHhPkX77bo-oiByB_M-25" value="&lt;span&gt;k = (AY-BY) / (AX-BX)&lt;/span&gt;" style="rounded=0;whiteSpace=wrap;html=1;" vertex="1" parent="39DMz0P3uiPCtwHiy78Q-1">
          <mxGeometry x="252" y="720" width="120" height="40" as="geometry" />
        </mxCell>
        <mxCell id="cHhHhPkX77bo-oiByB_M-32" style="edgeStyle=orthogonalEdgeStyle;rounded=0;orthogonalLoop=1;jettySize=auto;html=1;exitX=0.5;exitY=1;exitDx=0;exitDy=0;entryX=0.5;entryY=0;entryDx=0;entryDy=0;" edge="1" parent="39DMz0P3uiPCtwHiy78Q-1" source="cHhHhPkX77bo-oiByB_M-26" target="cHhHhPkX77bo-oiByB_M-28">
          <mxGeometry relative="1" as="geometry" />
        </mxCell>
        <mxCell id="cHhHhPkX77bo-oiByB_M-26" value="&lt;span&gt;b = AY - k * AX&lt;/span&gt;" style="rounded=0;whiteSpace=wrap;html=1;" vertex="1" parent="39DMz0P3uiPCtwHiy78Q-1">
          <mxGeometry x="252" y="780" width="120" height="40" as="geometry" />
        </mxCell>
        <mxCell id="cHhHhPkX77bo-oiByB_M-33" style="edgeStyle=orthogonalEdgeStyle;rounded=0;orthogonalLoop=1;jettySize=auto;html=1;exitX=0.5;exitY=1;exitDx=0;exitDy=0;entryX=0.5;entryY=0;entryDx=0;entryDy=0;" edge="1" parent="39DMz0P3uiPCtwHiy78Q-1" source="cHhHhPkX77bo-oiByB_M-28" target="cHhHhPkX77bo-oiByB_M-29">
          <mxGeometry relative="1" as="geometry" />
        </mxCell>
        <mxCell id="cHhHhPkX77bo-oiByB_M-28" value="Вывод&lt;br&gt;y = kx + b" style="shape=parallelogram;perimeter=parallelogramPerimeter;whiteSpace=wrap;html=1;fixedSize=1;" vertex="1" parent="39DMz0P3uiPCtwHiy78Q-1">
          <mxGeometry x="252" y="840" width="120" height="60" as="geometry" />
        </mxCell>
        <mxCell id="cHhHhPkX77bo-oiByB_M-29" value="Конец" style="ellipse;whiteSpace=wrap;html=1;" vertex="1" parent="39DMz0P3uiPCtwHiy78Q-1">
          <mxGeometry x="252" y="920" width="120" height="30" as="geometry" />
        </mxCell>
      </root>
    </mxGraphModel>
  </diagram>
  <diagram id="Pt1tJmFyYi7oSVFJJfqV" name="Task-7">
    <mxGraphModel dx="779" dy="614" grid="1" gridSize="10" guides="1" tooltips="1" connect="1" arrows="1" fold="1" page="1" pageScale="1" pageWidth="827" pageHeight="1169" math="0" shadow="0">
      <root>
        <mxCell id="WolGK52v6cQsRhBh8dAg-0" />
        <mxCell id="WolGK52v6cQsRhBh8dAg-1" parent="WolGK52v6cQsRhBh8dAg-0" />
        <mxCell id="WolGK52v6cQsRhBh8dAg-16" style="edgeStyle=orthogonalEdgeStyle;rounded=0;orthogonalLoop=1;jettySize=auto;html=1;exitX=0.5;exitY=1;exitDx=0;exitDy=0;entryX=0.5;entryY=0;entryDx=0;entryDy=0;" edge="1" parent="WolGK52v6cQsRhBh8dAg-1" source="WolGK52v6cQsRhBh8dAg-2" target="WolGK52v6cQsRhBh8dAg-3">
          <mxGeometry relative="1" as="geometry" />
        </mxCell>
        <mxCell id="WolGK52v6cQsRhBh8dAg-2" value="Начало" style="ellipse;whiteSpace=wrap;html=1;" vertex="1" parent="WolGK52v6cQsRhBh8dAg-1">
          <mxGeometry x="348.5" y="10" width="120" height="30" as="geometry" />
        </mxCell>
        <mxCell id="WolGK52v6cQsRhBh8dAg-17" style="edgeStyle=orthogonalEdgeStyle;rounded=0;orthogonalLoop=1;jettySize=auto;html=1;exitX=0.5;exitY=1;exitDx=0;exitDy=0;entryX=0.5;entryY=0;entryDx=0;entryDy=0;" edge="1" parent="WolGK52v6cQsRhBh8dAg-1" source="WolGK52v6cQsRhBh8dAg-3" target="WolGK52v6cQsRhBh8dAg-4">
          <mxGeometry relative="1" as="geometry" />
        </mxCell>
        <mxCell id="WolGK52v6cQsRhBh8dAg-3" value="Введите&lt;br&gt;год" style="shape=parallelogram;perimeter=parallelogramPerimeter;whiteSpace=wrap;html=1;fixedSize=1;" vertex="1" parent="WolGK52v6cQsRhBh8dAg-1">
          <mxGeometry x="348.5" y="60" width="120" height="60" as="geometry" />
        </mxCell>
        <mxCell id="WolGK52v6cQsRhBh8dAg-18" style="edgeStyle=orthogonalEdgeStyle;rounded=0;orthogonalLoop=1;jettySize=auto;html=1;exitX=0.5;exitY=1;exitDx=0;exitDy=0;entryX=0.5;entryY=0;entryDx=0;entryDy=0;" edge="1" parent="WolGK52v6cQsRhBh8dAg-1" source="WolGK52v6cQsRhBh8dAg-4" target="WolGK52v6cQsRhBh8dAg-5">
          <mxGeometry relative="1" as="geometry" />
        </mxCell>
        <mxCell id="WolGK52v6cQsRhBh8dAg-4" value="Ввод&lt;br&gt;года" style="shape=parallelogram;perimeter=parallelogramPerimeter;whiteSpace=wrap;html=1;fixedSize=1;" vertex="1" parent="WolGK52v6cQsRhBh8dAg-1">
          <mxGeometry x="349" y="140" width="120" height="60" as="geometry" />
        </mxCell>
        <mxCell id="WolGK52v6cQsRhBh8dAg-9" style="edgeStyle=orthogonalEdgeStyle;rounded=0;orthogonalLoop=1;jettySize=auto;html=1;exitX=0;exitY=0.5;exitDx=0;exitDy=0;entryX=0.5;entryY=0;entryDx=0;entryDy=0;" edge="1" parent="WolGK52v6cQsRhBh8dAg-1" source="WolGK52v6cQsRhBh8dAg-5" target="WolGK52v6cQsRhBh8dAg-7">
          <mxGeometry relative="1" as="geometry" />
        </mxCell>
        <mxCell id="WolGK52v6cQsRhBh8dAg-10" style="edgeStyle=orthogonalEdgeStyle;rounded=0;orthogonalLoop=1;jettySize=auto;html=1;exitX=1;exitY=0.5;exitDx=0;exitDy=0;entryX=0.5;entryY=0;entryDx=0;entryDy=0;" edge="1" parent="WolGK52v6cQsRhBh8dAg-1" source="WolGK52v6cQsRhBh8dAg-5" target="WolGK52v6cQsRhBh8dAg-8">
          <mxGeometry relative="1" as="geometry" />
        </mxCell>
        <mxCell id="WolGK52v6cQsRhBh8dAg-5" value="&lt;span class=&quot;pl-s1&quot; style=&quot;box-sizing: border-box ; color: rgb(36 , 41 , 46) ; font-family: , &amp;#34;consolas&amp;#34; , &amp;#34;liberation mono&amp;#34; , &amp;#34;menlo&amp;#34; , monospace&quot;&gt;leap&lt;/span&gt;&lt;span style=&quot;color: rgb(36 , 41 , 46) ; font-family: , &amp;#34;consolas&amp;#34; , &amp;#34;liberation mono&amp;#34; , &amp;#34;menlo&amp;#34; , monospace ; background-color: rgb(255 , 255 , 255)&quot;&gt; &lt;/span&gt;&lt;span class=&quot;pl-c1&quot; style=&quot;box-sizing: border-box ; color: rgb(0 , 92 , 197) ; font-family: , &amp;#34;consolas&amp;#34; , &amp;#34;liberation mono&amp;#34; , &amp;#34;menlo&amp;#34; , monospace&quot;&gt;=&lt;/span&gt;&lt;span style=&quot;color: rgb(36 , 41 , 46) ; font-family: , &amp;#34;consolas&amp;#34; , &amp;#34;liberation mono&amp;#34; , &amp;#34;menlo&amp;#34; , monospace ; background-color: rgb(255 , 255 , 255)&quot;&gt; ((&lt;/span&gt;&lt;span class=&quot;pl-s1&quot; style=&quot;box-sizing: border-box ; color: rgb(36 , 41 , 46) ; font-family: , &amp;#34;consolas&amp;#34; , &amp;#34;liberation mono&amp;#34; , &amp;#34;menlo&amp;#34; , monospace&quot;&gt;year&lt;/span&gt;&lt;span style=&quot;color: rgb(36 , 41 , 46) ; font-family: , &amp;#34;consolas&amp;#34; , &amp;#34;liberation mono&amp;#34; , &amp;#34;menlo&amp;#34; , monospace ; background-color: rgb(255 , 255 , 255)&quot;&gt; &lt;/span&gt;&lt;span class=&quot;pl-c1&quot; style=&quot;box-sizing: border-box ; color: rgb(0 , 92 , 197) ; font-family: , &amp;#34;consolas&amp;#34; , &amp;#34;liberation mono&amp;#34; , &amp;#34;menlo&amp;#34; , monospace&quot;&gt;%&lt;/span&gt;&lt;span style=&quot;color: rgb(36 , 41 , 46) ; font-family: , &amp;#34;consolas&amp;#34; , &amp;#34;liberation mono&amp;#34; , &amp;#34;menlo&amp;#34; , monospace ; background-color: rgb(255 , 255 , 255)&quot;&gt; &lt;/span&gt;&lt;span class=&quot;pl-c1&quot; style=&quot;box-sizing: border-box ; color: rgb(0 , 92 , 197) ; font-family: , &amp;#34;consolas&amp;#34; , &amp;#34;liberation mono&amp;#34; , &amp;#34;menlo&amp;#34; , monospace&quot;&gt;4&lt;/span&gt;&lt;span style=&quot;color: rgb(36 , 41 , 46) ; font-family: , &amp;#34;consolas&amp;#34; , &amp;#34;liberation mono&amp;#34; , &amp;#34;menlo&amp;#34; , monospace ; background-color: rgb(255 , 255 , 255)&quot;&gt; &lt;/span&gt;&lt;span class=&quot;pl-c1&quot; style=&quot;box-sizing: border-box ; color: rgb(0 , 92 , 197) ; font-family: , &amp;#34;consolas&amp;#34; , &amp;#34;liberation mono&amp;#34; , &amp;#34;menlo&amp;#34; , monospace&quot;&gt;==&lt;/span&gt;&lt;span style=&quot;color: rgb(36 , 41 , 46) ; font-family: , &amp;#34;consolas&amp;#34; , &amp;#34;liberation mono&amp;#34; , &amp;#34;menlo&amp;#34; , monospace ; background-color: rgb(255 , 255 , 255)&quot;&gt; &lt;/span&gt;&lt;span class=&quot;pl-c1&quot; style=&quot;box-sizing: border-box ; color: rgb(0 , 92 , 197) ; font-family: , &amp;#34;consolas&amp;#34; , &amp;#34;liberation mono&amp;#34; , &amp;#34;menlo&amp;#34; , monospace&quot;&gt;0&lt;/span&gt;&lt;span style=&quot;color: rgb(36 , 41 , 46) ; font-family: , &amp;#34;consolas&amp;#34; , &amp;#34;liberation mono&amp;#34; , &amp;#34;menlo&amp;#34; , monospace ; background-color: rgb(255 , 255 , 255)&quot;&gt;) &lt;br&gt;&lt;/span&gt;&lt;span class=&quot;pl-c1&quot; style=&quot;box-sizing: border-box ; color: rgb(0 , 92 , 197) ; font-family: , &amp;#34;consolas&amp;#34; , &amp;#34;liberation mono&amp;#34; , &amp;#34;menlo&amp;#34; , monospace&quot;&gt;and&lt;/span&gt;&lt;span style=&quot;color: rgb(36 , 41 , 46) ; font-family: , &amp;#34;consolas&amp;#34; , &amp;#34;liberation mono&amp;#34; , &amp;#34;menlo&amp;#34; , monospace ; background-color: rgb(255 , 255 , 255)&quot;&gt; (&lt;/span&gt;&lt;span class=&quot;pl-s1&quot; style=&quot;box-sizing: border-box ; color: rgb(36 , 41 , 46) ; font-family: , &amp;#34;consolas&amp;#34; , &amp;#34;liberation mono&amp;#34; , &amp;#34;menlo&amp;#34; , monospace&quot;&gt;year&lt;/span&gt;&lt;span style=&quot;color: rgb(36 , 41 , 46) ; font-family: , &amp;#34;consolas&amp;#34; , &amp;#34;liberation mono&amp;#34; , &amp;#34;menlo&amp;#34; , monospace ; background-color: rgb(255 , 255 , 255)&quot;&gt; &lt;/span&gt;&lt;span class=&quot;pl-c1&quot; style=&quot;box-sizing: border-box ; color: rgb(0 , 92 , 197) ; font-family: , &amp;#34;consolas&amp;#34; , &amp;#34;liberation mono&amp;#34; , &amp;#34;menlo&amp;#34; , monospace&quot;&gt;%&lt;/span&gt;&lt;span style=&quot;color: rgb(36 , 41 , 46) ; font-family: , &amp;#34;consolas&amp;#34; , &amp;#34;liberation mono&amp;#34; , &amp;#34;menlo&amp;#34; , monospace ; background-color: rgb(255 , 255 , 255)&quot;&gt; &lt;/span&gt;&lt;span class=&quot;pl-c1&quot; style=&quot;box-sizing: border-box ; color: rgb(0 , 92 , 197) ; font-family: , &amp;#34;consolas&amp;#34; , &amp;#34;liberation mono&amp;#34; , &amp;#34;menlo&amp;#34; , monospace&quot;&gt;100&lt;/span&gt;&lt;span style=&quot;color: rgb(36 , 41 , 46) ; font-family: , &amp;#34;consolas&amp;#34; , &amp;#34;liberation mono&amp;#34; , &amp;#34;menlo&amp;#34; , monospace ; background-color: rgb(255 , 255 , 255)&quot;&gt; &lt;/span&gt;&lt;span class=&quot;pl-c1&quot; style=&quot;box-sizing: border-box ; color: rgb(0 , 92 , 197) ; font-family: , &amp;#34;consolas&amp;#34; , &amp;#34;liberation mono&amp;#34; , &amp;#34;menlo&amp;#34; , monospace&quot;&gt;&amp;gt;&lt;/span&gt;&lt;span style=&quot;color: rgb(36 , 41 , 46) ; font-family: , &amp;#34;consolas&amp;#34; , &amp;#34;liberation mono&amp;#34; , &amp;#34;menlo&amp;#34; , monospace ; background-color: rgb(255 , 255 , 255)&quot;&gt; &lt;/span&gt;&lt;span class=&quot;pl-c1&quot; style=&quot;box-sizing: border-box ; color: rgb(0 , 92 , 197) ; font-family: , &amp;#34;consolas&amp;#34; , &amp;#34;liberation mono&amp;#34; , &amp;#34;menlo&amp;#34; , monospace&quot;&gt;0&lt;/span&gt;&lt;span style=&quot;color: rgb(36 , 41 , 46) ; font-family: , &amp;#34;consolas&amp;#34; , &amp;#34;liberation mono&amp;#34; , &amp;#34;menlo&amp;#34; , monospace ; background-color: rgb(255 , 255 , 255)&quot;&gt;)) &lt;br&gt;&lt;/span&gt;&lt;span class=&quot;pl-c1&quot; style=&quot;box-sizing: border-box ; color: rgb(0 , 92 , 197) ; font-family: , &amp;#34;consolas&amp;#34; , &amp;#34;liberation mono&amp;#34; , &amp;#34;menlo&amp;#34; , monospace&quot;&gt;or&lt;/span&gt;&lt;span style=&quot;color: rgb(36 , 41 , 46) ; font-family: , &amp;#34;consolas&amp;#34; , &amp;#34;liberation mono&amp;#34; , &amp;#34;menlo&amp;#34; , monospace ; background-color: rgb(255 , 255 , 255)&quot;&gt; (&lt;/span&gt;&lt;span class=&quot;pl-s1&quot; style=&quot;box-sizing: border-box ; color: rgb(36 , 41 , 46) ; font-family: , &amp;#34;consolas&amp;#34; , &amp;#34;liberation mono&amp;#34; , &amp;#34;menlo&amp;#34; , monospace&quot;&gt;year&lt;/span&gt;&lt;span style=&quot;color: rgb(36 , 41 , 46) ; font-family: , &amp;#34;consolas&amp;#34; , &amp;#34;liberation mono&amp;#34; , &amp;#34;menlo&amp;#34; , monospace ; background-color: rgb(255 , 255 , 255)&quot;&gt; &lt;/span&gt;&lt;span class=&quot;pl-c1&quot; style=&quot;box-sizing: border-box ; color: rgb(0 , 92 , 197) ; font-family: , &amp;#34;consolas&amp;#34; , &amp;#34;liberation mono&amp;#34; , &amp;#34;menlo&amp;#34; , monospace&quot;&gt;%&lt;/span&gt;&lt;span style=&quot;color: rgb(36 , 41 , 46) ; font-family: , &amp;#34;consolas&amp;#34; , &amp;#34;liberation mono&amp;#34; , &amp;#34;menlo&amp;#34; , monospace ; background-color: rgb(255 , 255 , 255)&quot;&gt; &lt;/span&gt;&lt;span class=&quot;pl-c1&quot; style=&quot;box-sizing: border-box ; color: rgb(0 , 92 , 197) ; font-family: , &amp;#34;consolas&amp;#34; , &amp;#34;liberation mono&amp;#34; , &amp;#34;menlo&amp;#34; , monospace&quot;&gt;400&lt;/span&gt;&lt;span style=&quot;color: rgb(36 , 41 , 46) ; font-family: , &amp;#34;consolas&amp;#34; , &amp;#34;liberation mono&amp;#34; , &amp;#34;menlo&amp;#34; , monospace ; background-color: rgb(255 , 255 , 255)&quot;&gt; &lt;/span&gt;&lt;span class=&quot;pl-c1&quot; style=&quot;box-sizing: border-box ; color: rgb(0 , 92 , 197) ; font-family: , &amp;#34;consolas&amp;#34; , &amp;#34;liberation mono&amp;#34; , &amp;#34;menlo&amp;#34; , monospace&quot;&gt;==&lt;/span&gt;&lt;span style=&quot;color: rgb(36 , 41 , 46) ; font-family: , &amp;#34;consolas&amp;#34; , &amp;#34;liberation mono&amp;#34; , &amp;#34;menlo&amp;#34; , monospace ; background-color: rgb(255 , 255 , 255)&quot;&gt; &lt;/span&gt;&lt;span class=&quot;pl-c1&quot; style=&quot;box-sizing: border-box ; color: rgb(0 , 92 , 197) ; font-family: , &amp;#34;consolas&amp;#34; , &amp;#34;liberation mono&amp;#34; , &amp;#34;menlo&amp;#34; , monospace&quot;&gt;0&lt;/span&gt;&lt;span style=&quot;color: rgb(36 , 41 , 46) ; font-family: , &amp;#34;consolas&amp;#34; , &amp;#34;liberation mono&amp;#34; , &amp;#34;menlo&amp;#34; , monospace ; background-color: rgb(255 , 255 , 255)&quot;&gt;)&lt;/span&gt;" style="rhombus;whiteSpace=wrap;html=1;" vertex="1" parent="WolGK52v6cQsRhBh8dAg-1">
          <mxGeometry x="307" y="220" width="203" height="140" as="geometry" />
        </mxCell>
        <mxCell id="WolGK52v6cQsRhBh8dAg-14" style="edgeStyle=orthogonalEdgeStyle;rounded=0;orthogonalLoop=1;jettySize=auto;html=1;exitX=0.5;exitY=1;exitDx=0;exitDy=0;entryX=0.5;entryY=0;entryDx=0;entryDy=0;" edge="1" parent="WolGK52v6cQsRhBh8dAg-1" source="WolGK52v6cQsRhBh8dAg-7" target="WolGK52v6cQsRhBh8dAg-13">
          <mxGeometry relative="1" as="geometry" />
        </mxCell>
        <mxCell id="WolGK52v6cQsRhBh8dAg-7" value="Вывод&lt;br&gt;високосный" style="shape=parallelogram;perimeter=parallelogramPerimeter;whiteSpace=wrap;html=1;fixedSize=1;" vertex="1" parent="WolGK52v6cQsRhBh8dAg-1">
          <mxGeometry x="160" y="360" width="120" height="60" as="geometry" />
        </mxCell>
        <mxCell id="WolGK52v6cQsRhBh8dAg-15" style="edgeStyle=orthogonalEdgeStyle;rounded=0;orthogonalLoop=1;jettySize=auto;html=1;exitX=0.5;exitY=1;exitDx=0;exitDy=0;entryX=0.5;entryY=0;entryDx=0;entryDy=0;" edge="1" parent="WolGK52v6cQsRhBh8dAg-1" source="WolGK52v6cQsRhBh8dAg-8" target="WolGK52v6cQsRhBh8dAg-13">
          <mxGeometry relative="1" as="geometry" />
        </mxCell>
        <mxCell id="WolGK52v6cQsRhBh8dAg-8" value="Вывод не високосный" style="shape=parallelogram;perimeter=parallelogramPerimeter;whiteSpace=wrap;html=1;fixedSize=1;" vertex="1" parent="WolGK52v6cQsRhBh8dAg-1">
          <mxGeometry x="520" y="360" width="120" height="60" as="geometry" />
        </mxCell>
        <mxCell id="WolGK52v6cQsRhBh8dAg-13" value="Конец" style="ellipse;whiteSpace=wrap;html=1;" vertex="1" parent="WolGK52v6cQsRhBh8dAg-1">
          <mxGeometry x="349" y="490" width="120" height="30" as="geometry" />
        </mxCell>
        <mxCell id="WolGK52v6cQsRhBh8dAg-19" value="True" style="text;html=1;strokeColor=none;fillColor=none;align=center;verticalAlign=middle;whiteSpace=wrap;rounded=0;" vertex="1" parent="WolGK52v6cQsRhBh8dAg-1">
          <mxGeometry x="250" y="260" width="40" height="20" as="geometry" />
        </mxCell>
        <mxCell id="WolGK52v6cQsRhBh8dAg-20" value="False" style="text;html=1;strokeColor=none;fillColor=none;align=center;verticalAlign=middle;whiteSpace=wrap;rounded=0;" vertex="1" parent="WolGK52v6cQsRhBh8dAg-1">
          <mxGeometry x="530" y="260" width="40" height="20" as="geometry" />
        </mxCell>
      </root>
    </mxGraphModel>
  </diagram>
  <diagram id="ASWgRcCUzGQQlcJGEGzY" name="Task-8">
    <mxGraphModel dx="916" dy="722" grid="1" gridSize="10" guides="1" tooltips="1" connect="1" arrows="1" fold="1" page="1" pageScale="1" pageWidth="827" pageHeight="1169" math="0" shadow="0">
      <root>
        <mxCell id="DTmm9sGPigF9bCRrXERx-0" />
        <mxCell id="DTmm9sGPigF9bCRrXERx-1" parent="DTmm9sGPigF9bCRrXERx-0" />
        <mxCell id="DTmm9sGPigF9bCRrXERx-54" style="edgeStyle=orthogonalEdgeStyle;rounded=0;orthogonalLoop=1;jettySize=auto;html=1;exitX=0.5;exitY=1;exitDx=0;exitDy=0;entryX=0.5;entryY=0;entryDx=0;entryDy=0;" edge="1" parent="DTmm9sGPigF9bCRrXERx-1" source="DTmm9sGPigF9bCRrXERx-2" target="DTmm9sGPigF9bCRrXERx-3">
          <mxGeometry relative="1" as="geometry" />
        </mxCell>
        <mxCell id="DTmm9sGPigF9bCRrXERx-2" value="Начало" style="ellipse;whiteSpace=wrap;html=1;" vertex="1" parent="DTmm9sGPigF9bCRrXERx-1">
          <mxGeometry x="354" y="20" width="120" height="30" as="geometry" />
        </mxCell>
        <mxCell id="DTmm9sGPigF9bCRrXERx-53" style="edgeStyle=orthogonalEdgeStyle;rounded=0;orthogonalLoop=1;jettySize=auto;html=1;exitX=0.5;exitY=1;exitDx=0;exitDy=0;entryX=0.5;entryY=0;entryDx=0;entryDy=0;" edge="1" parent="DTmm9sGPigF9bCRrXERx-1" source="DTmm9sGPigF9bCRrXERx-3" target="DTmm9sGPigF9bCRrXERx-4">
          <mxGeometry relative="1" as="geometry" />
        </mxCell>
        <mxCell id="DTmm9sGPigF9bCRrXERx-3" value="Введите &lt;br&gt;3 числа" style="shape=parallelogram;perimeter=parallelogramPerimeter;whiteSpace=wrap;html=1;fixedSize=1;" vertex="1" parent="DTmm9sGPigF9bCRrXERx-1">
          <mxGeometry x="354" y="70" width="120" height="60" as="geometry" />
        </mxCell>
        <mxCell id="DTmm9sGPigF9bCRrXERx-52" style="edgeStyle=orthogonalEdgeStyle;rounded=0;orthogonalLoop=1;jettySize=auto;html=1;exitX=0.5;exitY=1;exitDx=0;exitDy=0;entryX=0.5;entryY=0;entryDx=0;entryDy=0;" edge="1" parent="DTmm9sGPigF9bCRrXERx-1" source="DTmm9sGPigF9bCRrXERx-4" target="DTmm9sGPigF9bCRrXERx-5">
          <mxGeometry relative="1" as="geometry" />
        </mxCell>
        <mxCell id="DTmm9sGPigF9bCRrXERx-4" value="Ввод a, b, c" style="shape=parallelogram;perimeter=parallelogramPerimeter;whiteSpace=wrap;html=1;fixedSize=1;" vertex="1" parent="DTmm9sGPigF9bCRrXERx-1">
          <mxGeometry x="354" y="150" width="120" height="60" as="geometry" />
        </mxCell>
        <mxCell id="DTmm9sGPigF9bCRrXERx-40" style="edgeStyle=orthogonalEdgeStyle;rounded=0;orthogonalLoop=1;jettySize=auto;html=1;exitX=0;exitY=0.5;exitDx=0;exitDy=0;entryX=0.5;entryY=0;entryDx=0;entryDy=0;" edge="1" parent="DTmm9sGPigF9bCRrXERx-1" source="DTmm9sGPigF9bCRrXERx-5" target="DTmm9sGPigF9bCRrXERx-17">
          <mxGeometry relative="1" as="geometry" />
        </mxCell>
        <mxCell id="DTmm9sGPigF9bCRrXERx-43" style="edgeStyle=orthogonalEdgeStyle;rounded=0;orthogonalLoop=1;jettySize=auto;html=1;exitX=1;exitY=0.5;exitDx=0;exitDy=0;entryX=0.5;entryY=0;entryDx=0;entryDy=0;" edge="1" parent="DTmm9sGPigF9bCRrXERx-1" source="DTmm9sGPigF9bCRrXERx-5" target="DTmm9sGPigF9bCRrXERx-41">
          <mxGeometry relative="1" as="geometry" />
        </mxCell>
        <mxCell id="DTmm9sGPigF9bCRrXERx-5" value="&lt;span style=&quot;box-sizing: border-box ; font-family: monospace ; font-size: 13px ; background-color: rgb(248 , 248 , 248) ; color: rgb(0 , 153 , 0)&quot;&gt;b &amp;lt;= a &amp;lt;= c&lt;br&gt;&lt;/span&gt;&lt;span style=&quot;color: rgb(34 , 34 , 34) ; font-family: monospace ; font-size: 13px ; background-color: rgb(248 , 248 , 248)&quot;&gt;&amp;nbsp;&lt;/span&gt;&lt;span style=&quot;box-sizing: border-box ; font-family: monospace ; font-size: 13px ; background-color: rgb(248 , 248 , 248) ; font-weight: bold&quot;&gt;or&lt;/span&gt;&lt;span style=&quot;color: rgb(34 , 34 , 34) ; font-family: monospace ; font-size: 13px ; background-color: rgb(248 , 248 , 248)&quot;&gt;&amp;nbsp;&lt;br&gt;&lt;/span&gt;&lt;font color=&quot;#009900&quot; face=&quot;monospace&quot; size=&quot;2&quot;&gt;&lt;span style=&quot;background-color: rgb(248 , 248 , 248)&quot;&gt;c&amp;nbsp;&lt;/span&gt;&lt;/font&gt;&lt;span style=&quot;color: rgb(0 , 153 , 0) ; font-family: monospace ; font-size: 13px ; background-color: rgb(248 , 248 , 248)&quot;&gt;&amp;lt;=&amp;nbsp;&lt;/span&gt;&lt;font color=&quot;#009900&quot; face=&quot;monospace&quot; size=&quot;2&quot;&gt;&lt;span style=&quot;background-color: rgb(248 , 248 , 248)&quot;&gt;a&amp;nbsp;&lt;/span&gt;&lt;/font&gt;&lt;span style=&quot;color: rgb(0 , 153 , 0) ; font-family: monospace ; font-size: 13px ; background-color: rgb(248 , 248 , 248)&quot;&gt;&amp;lt;=&amp;nbsp;&lt;/span&gt;&lt;font color=&quot;#009900&quot; face=&quot;monospace&quot; size=&quot;2&quot;&gt;&lt;span style=&quot;background-color: rgb(248 , 248 , 248)&quot;&gt;b&lt;/span&gt;&lt;/font&gt;" style="rhombus;whiteSpace=wrap;html=1;" vertex="1" parent="DTmm9sGPigF9bCRrXERx-1">
          <mxGeometry x="289" y="230" width="250" height="150" as="geometry" />
        </mxCell>
        <mxCell id="DTmm9sGPigF9bCRrXERx-50" style="edgeStyle=orthogonalEdgeStyle;rounded=0;orthogonalLoop=1;jettySize=auto;html=1;exitX=0.5;exitY=1;exitDx=0;exitDy=0;entryX=0.5;entryY=0;entryDx=0;entryDy=0;" edge="1" parent="DTmm9sGPigF9bCRrXERx-1" source="DTmm9sGPigF9bCRrXERx-13" target="DTmm9sGPigF9bCRrXERx-48">
          <mxGeometry relative="1" as="geometry" />
        </mxCell>
        <mxCell id="DTmm9sGPigF9bCRrXERx-13" value="Вывод&lt;br&gt;b &amp;nbsp;среднее" style="shape=parallelogram;perimeter=parallelogramPerimeter;whiteSpace=wrap;html=1;fixedSize=1;" vertex="1" parent="DTmm9sGPigF9bCRrXERx-1">
          <mxGeometry x="400" y="480" width="120" height="60" as="geometry" />
        </mxCell>
        <mxCell id="DTmm9sGPigF9bCRrXERx-14" value="True" style="text;html=1;align=center;verticalAlign=middle;resizable=0;points=[];autosize=1;" vertex="1" parent="DTmm9sGPigF9bCRrXERx-1">
          <mxGeometry x="230" y="280" width="40" height="20" as="geometry" />
        </mxCell>
        <mxCell id="DTmm9sGPigF9bCRrXERx-15" value="False" style="text;html=1;align=center;verticalAlign=middle;resizable=0;points=[];autosize=1;" vertex="1" parent="DTmm9sGPigF9bCRrXERx-1">
          <mxGeometry x="560" y="280" width="40" height="20" as="geometry" />
        </mxCell>
        <mxCell id="DTmm9sGPigF9bCRrXERx-49" style="edgeStyle=orthogonalEdgeStyle;rounded=0;orthogonalLoop=1;jettySize=auto;html=1;exitX=0.5;exitY=1;exitDx=0;exitDy=0;entryX=0.5;entryY=0;entryDx=0;entryDy=0;" edge="1" parent="DTmm9sGPigF9bCRrXERx-1" source="DTmm9sGPigF9bCRrXERx-17" target="DTmm9sGPigF9bCRrXERx-48">
          <mxGeometry relative="1" as="geometry" />
        </mxCell>
        <mxCell id="DTmm9sGPigF9bCRrXERx-17" value="Вывод&lt;br&gt;a &amp;nbsp;среднее" style="shape=parallelogram;perimeter=parallelogramPerimeter;whiteSpace=wrap;html=1;fixedSize=1;" vertex="1" parent="DTmm9sGPigF9bCRrXERx-1">
          <mxGeometry x="180" y="480" width="120" height="60" as="geometry" />
        </mxCell>
        <mxCell id="DTmm9sGPigF9bCRrXERx-51" style="edgeStyle=orthogonalEdgeStyle;rounded=0;orthogonalLoop=1;jettySize=auto;html=1;exitX=0.5;exitY=1;exitDx=0;exitDy=0;entryX=0.5;entryY=0;entryDx=0;entryDy=0;" edge="1" parent="DTmm9sGPigF9bCRrXERx-1" source="DTmm9sGPigF9bCRrXERx-34" target="DTmm9sGPigF9bCRrXERx-48">
          <mxGeometry relative="1" as="geometry" />
        </mxCell>
        <mxCell id="DTmm9sGPigF9bCRrXERx-34" value="Вывод&lt;br&gt;c &amp;nbsp;среднее" style="shape=parallelogram;perimeter=parallelogramPerimeter;whiteSpace=wrap;html=1;fixedSize=1;" vertex="1" parent="DTmm9sGPigF9bCRrXERx-1">
          <mxGeometry x="810" y="480" width="120" height="60" as="geometry" />
        </mxCell>
        <mxCell id="DTmm9sGPigF9bCRrXERx-44" style="edgeStyle=orthogonalEdgeStyle;rounded=0;orthogonalLoop=1;jettySize=auto;html=1;exitX=0;exitY=0.5;exitDx=0;exitDy=0;entryX=0.5;entryY=0;entryDx=0;entryDy=0;" edge="1" parent="DTmm9sGPigF9bCRrXERx-1" source="DTmm9sGPigF9bCRrXERx-41" target="DTmm9sGPigF9bCRrXERx-13">
          <mxGeometry relative="1" as="geometry" />
        </mxCell>
        <mxCell id="DTmm9sGPigF9bCRrXERx-45" style="edgeStyle=orthogonalEdgeStyle;rounded=0;orthogonalLoop=1;jettySize=auto;html=1;exitX=1;exitY=0.5;exitDx=0;exitDy=0;entryX=0.5;entryY=0;entryDx=0;entryDy=0;" edge="1" parent="DTmm9sGPigF9bCRrXERx-1" source="DTmm9sGPigF9bCRrXERx-41" target="DTmm9sGPigF9bCRrXERx-34">
          <mxGeometry relative="1" as="geometry" />
        </mxCell>
        <mxCell id="DTmm9sGPigF9bCRrXERx-41" value="&lt;span style=&quot;box-sizing: border-box ; font-family: monospace ; font-size: 13px ; background-color: rgb(248 , 248 , 248) ; color: rgb(0 , 153 , 0)&quot;&gt;a &amp;lt;= b &amp;lt;= c&lt;br&gt;&lt;/span&gt;&lt;span style=&quot;color: rgb(34 , 34 , 34) ; font-family: monospace ; font-size: 13px ; background-color: rgb(248 , 248 , 248)&quot;&gt;&amp;nbsp;&lt;/span&gt;&lt;span style=&quot;box-sizing: border-box ; font-family: monospace ; font-size: 13px ; background-color: rgb(248 , 248 , 248) ; font-weight: bold&quot;&gt;or&lt;/span&gt;&lt;span style=&quot;color: rgb(34 , 34 , 34) ; font-family: monospace ; font-size: 13px ; background-color: rgb(248 , 248 , 248)&quot;&gt;&amp;nbsp;&lt;br&gt;&lt;/span&gt;&lt;font color=&quot;#009900&quot; face=&quot;monospace&quot; size=&quot;2&quot;&gt;&lt;span style=&quot;background-color: rgb(248 , 248 , 248)&quot;&gt;c&amp;nbsp;&lt;/span&gt;&lt;/font&gt;&lt;span style=&quot;color: rgb(0 , 153 , 0) ; font-family: monospace ; font-size: 13px ; background-color: rgb(248 , 248 , 248)&quot;&gt;&amp;lt;= &lt;/span&gt;&lt;span style=&quot;color: rgb(0 , 153 , 0) ; font-family: monospace ; background-color: rgb(248 , 248 , 248)&quot;&gt;&lt;font size=&quot;2&quot;&gt;b&amp;nbsp;&lt;/font&gt;&lt;/span&gt;&lt;span style=&quot;color: rgb(0 , 153 , 0) ; font-family: monospace ; font-size: 13px ; background-color: rgb(248 , 248 , 248)&quot;&gt;&amp;lt;=&amp;nbsp;&lt;/span&gt;&lt;font color=&quot;#009900&quot; face=&quot;monospace&quot; size=&quot;2&quot;&gt;&lt;span style=&quot;background-color: rgb(248 , 248 , 248)&quot;&gt;a&lt;/span&gt;&lt;/font&gt;" style="rhombus;whiteSpace=wrap;html=1;" vertex="1" parent="DTmm9sGPigF9bCRrXERx-1">
          <mxGeometry x="539" y="350" width="250" height="150" as="geometry" />
        </mxCell>
        <mxCell id="DTmm9sGPigF9bCRrXERx-46" value="True" style="text;html=1;align=center;verticalAlign=middle;resizable=0;points=[];autosize=1;" vertex="1" parent="DTmm9sGPigF9bCRrXERx-1">
          <mxGeometry x="480" y="400" width="40" height="20" as="geometry" />
        </mxCell>
        <mxCell id="DTmm9sGPigF9bCRrXERx-47" value="False" style="text;html=1;align=center;verticalAlign=middle;resizable=0;points=[];autosize=1;" vertex="1" parent="DTmm9sGPigF9bCRrXERx-1">
          <mxGeometry x="800" y="400" width="40" height="20" as="geometry" />
        </mxCell>
        <mxCell id="DTmm9sGPigF9bCRrXERx-48" value="Конец" style="ellipse;whiteSpace=wrap;html=1;" vertex="1" parent="DTmm9sGPigF9bCRrXERx-1">
          <mxGeometry x="400" y="630" width="120" height="30" as="geometry" />
        </mxCell>
      </root>
    </mxGraphModel>
  </diagram>
</mxfile>
